<svg width="1440" height="900" viewBox="0 0 1440 900" fill="none" xmlns="http://www.w3.org/2000/svg">
<g clip-path="url(#clip0_754_2)">
<path d="M885.933 242C922.237 242 951.667 271.46 951.667 307.8V406.5C951.667 497.351 1025.24 571 1116 571H1214.6C1250.9 571 1280.33 600.46 1280.33 636.8V834.2C1280.33 870.54 1250.9 900 1214.6 900H1017.4C981.097 900 951.667 870.54 951.667 834.2V735.5C951.667 644.649 878.092 571 787.333 571H688.733C652.43 571 623 541.54 623 505.2V307.8C623 271.46 652.43 242 688.733 242H885.933Z" fill="url(#paint0_radial_754_2)"/>
<path d="M1543.27 242C1579.57 242 1609 271.46 1609 307.8V505.2C1609 541.54 1579.57 571 1543.27 571H1346.07C1309.76 571 1280.33 541.54 1280.33 505.2V307.8C1280.33 271.46 1309.76 242 1346.07 242H1543.27Z" fill="url(#paint1_radial_754_2)"/>
</g>
<defs>
<radialGradient id="paint0_radial_754_2" cx="0" cy="0" r="1" gradientTransform="matrix(-617.456 -629.671 943.55 -927.123 1272.29 900.644)" gradientUnits="userSpaceOnUse">
<stop offset="0.15" stop-color="#D70923"/>
<stop offset="0.45" stop-color="#6A0612"/>
<stop offset="0.65" stop-color="#2A070A"/>
<stop offset="1" stop-color="#0B0A0A"/>
</radialGradient>
<radialGradient id="paint1_radial_754_2" cx="0" cy="0" r="1" gradientTransform="matrix(-617.456 -629.671 943.55 -927.123 1272.29 900.644)" gradientUnits="userSpaceOnUse">
<stop offset="0.15" stop-color="#D70923"/>
<stop offset="0.45" stop-color="#6A0612"/>
<stop offset="0.65" stop-color="#2A070A"/>
<stop offset="1" stop-color="#0B0A0A"/>
</radialGradient>
<clipPath id="clip0_754_2">
<rect width="1440" height="900" fill="white"/>
</clipPath>
</defs>
</svg>
